<svg width="42" height="42" viewBox="0 0 42 42" fill="none" xmlns="http://www.w3.org/2000/svg">
    <circle opacity="0.5" cx="21" cy="21" r="21" fill="#E6EAF5"/>
    <path d="M22.1 31C20.7 31 19.3877 30.7333 18.163 30.2C16.9383 29.6667 15.8717 28.9457 14.963 28.037C14.0543 27.129 13.3333 26.0623 12.8 24.837C12.2667 23.6117 12 22.2993 12 20.9C12 18.4667 12.775 16.3207 14.325 14.462C15.875 12.6033 17.85 11.4493 20.25 11C19.95 12.65 20.0417 14.2627 20.525 15.838C21.0083 17.4133 21.8417 18.7923 23.025 19.975C24.2083 21.1583 25.5877 21.9917 27.163 22.475C28.7383 22.9583 30.3507 23.05 32 22.75C31.5667 25.15 30.4167 27.125 28.55 28.675C26.6833 30.225 24.5333 31 22.1 31ZM22.1 29C23.5667 29 24.925 28.6333 26.175 27.9C27.425 27.1667 28.4083 26.1583 29.125 24.875C27.6917 24.7417 26.3333 24.379 25.05 23.787C23.7667 23.195 22.6167 22.391 21.6 21.375C20.5833 20.3583 19.775 19.2083 19.175 17.925C18.575 16.6417 18.2167 15.2833 18.1 13.85C16.8167 14.5667 15.8127 15.5543 15.088 16.813C14.3633 18.0717 14.0007 19.434 14 20.9C14 23.15 14.7877 25.0627 16.363 26.638C17.9383 28.2133 19.8507 29.0007 22.1 29Z" fill="#0842A0"/>
</svg>
