<svg width="75" height="75" viewBox="0 0 75 75" fill="none" xmlns="http://www.w3.org/2000/svg">
<path d="M35.1543 31.1775L27.5371 17.9842C26.7616 16.6385 26.5522 15.0399 26.9548 13.5398C27.3574 12.0398 28.3391 10.7609 29.6842 9.98436C31.0293 9.20779 32.6277 8.99702 34.1281 9.39837C35.6285 9.79973 36.9081 10.7804 37.6858 12.1248L49.4046 32.4223" stroke="#1E3A8A" stroke-width="2" stroke-linecap="round" stroke-linejoin="round"/>
<path d="M26.1775 39.0666L15.0447 19.784C14.6592 19.1176 14.4088 18.3818 14.3078 17.6185C14.2068 16.8553 14.2573 16.0797 14.4562 15.3359C14.6552 14.5922 14.9987 13.895 15.4673 13.2841C15.9358 12.6732 16.5202 12.1607 17.1869 11.7757C17.8536 11.3908 18.5897 11.141 19.353 11.0407C20.1163 10.9404 20.8919 10.9914 21.6355 11.191C22.379 11.3906 23.076 11.7347 23.6865 12.2038C24.2969 12.6728 24.809 13.2576 25.1934 13.9247L35.1543 31.1775" stroke="#1E3A8A" stroke-width="2" stroke-linecap="round" stroke-linejoin="round"/>
<path d="M45.1152 48.4303C43.5612 45.7387 43.1401 42.54 43.9445 39.5379C44.7489 36.5358 46.713 33.9762 49.4046 32.4222L46.4749 27.3479C46.0894 26.6815 45.839 25.9456 45.738 25.1824C45.6371 24.4192 45.6875 23.6435 45.8864 22.8998C46.0854 22.1561 46.4289 21.4588 46.8975 20.848C47.366 20.2371 47.9504 19.7245 48.6171 19.3396C49.2838 18.9546 50.0199 18.7049 50.7832 18.6045C51.5465 18.5042 52.3221 18.5553 53.0657 18.7549C53.8092 18.9544 54.5062 19.2986 55.1167 19.7676C55.7272 20.2367 56.2392 20.8214 56.6236 21.4885L62.483 31.6372C64.0227 34.3028 65.0223 37.2455 65.4246 40.2974C65.8269 43.3493 65.6241 46.4506 64.8277 49.4241C64.0313 52.3975 62.657 55.185 60.7831 57.6273C58.9093 60.0696 56.5728 62.1188 53.9069 63.658C51.241 65.1971 48.298 66.196 45.246 66.5977C42.1941 66.9993 39.0928 66.7958 36.1195 65.9987C33.1462 65.2017 30.359 63.8267 27.9172 61.9523C25.4753 60.078 23.4266 57.741 21.888 55.0747L9.58336 33.7624C8.8079 32.4167 8.59847 30.8181 9.00108 29.3181C9.4037 27.818 10.3854 26.5392 11.7305 25.7626C13.0756 24.986 14.6739 24.7752 16.1743 25.1766C17.6747 25.5779 18.9544 26.5586 19.7321 27.903L26.1774 39.0666" stroke="#1E3A8A" stroke-width="2" stroke-linecap="round" stroke-linejoin="round"/>
<path d="M23.7581 70.3133C19.7855 67.5571 16.4741 63.9537 14.0625 59.7629" stroke="#1E3A8A" stroke-width="2" stroke-linecap="round" stroke-linejoin="round"/>
<path d="M51.5625 9.08203C54.2366 9.08168 56.8637 9.78561 59.1793 11.123C61.495 12.4604 63.4176 14.3841 64.7537 16.7005" stroke="#1E3A8A" stroke-width="2" stroke-linecap="round" stroke-linejoin="round"/>
</svg>

